<svg width="74.000000" height="25.000000" viewBox="0 0 74 25" fill="none" xmlns="http://www.w3.org/2000/svg" xmlns:xlink="http://www.w3.org/1999/xlink">
	<defs>
		<filter id="filter_2_948_dd" x="-0.616699" y="-0.492188" width="73.656738" height="25.185547" filterUnits="userSpaceOnUse" color-interpolation-filters="sRGB">
			<feFlood flood-opacity="0" result="BackgroundImageFix"/>
			<feColorMatrix in="SourceAlpha" type="matrix" values="0 0 0 0 0 0 0 0 0 0 0 0 0 0 0 0 0 0 127 0" result="hardAlpha"/>
			<feOffset dx="0" dy="4"/>
			<feGaussianBlur stdDeviation="1.33333"/>
			<feComposite in2="hardAlpha" operator="out" k2="-1" k3="1"/>
			<feColorMatrix type="matrix" values="0 0 0 0 0 0 0 0 0 0 0 0 0 0 0 0 0 0 0.25 0"/>
			<feBlend mode="normal" in2="BackgroundImageFix" result="effect_dropShadow_1"/>
			<feBlend mode="normal" in="SourceGraphic" in2="effect_dropShadow_1" result="shape"/>
		</filter>
	</defs>
	<g filter="url(#filter_2_948_dd)">
		<path d="M22.76 8L20.46 8L20.46 13.47Q20.24 13.61 20.01 13.74Q18.48 14.55 16.52 14.55Q14.92 14.55 13.58 13.95Q13.34 13.84 13.1 13.71Q12.26 13.25 11.62 12.59Q11.1 12.06 10.71 11.4Q10.49 11.02 10.32 10.61Q9.85 9.45 9.85 8.09Q9.85 6.66 10.37 5.45Q10.52 5.1 10.71 4.77Q11.11 4.09 11.64 3.55Q12.28 2.92 13.1 2.47Q13.24 2.39 13.38 2.33Q14.8 1.64 16.55 1.64Q18.08 1.64 19.36 2.2Q20.48 2.68 21.42 3.58L22.9 2.09Q22.52 1.67 22.08 1.31Q21.2 0.6 20.11 0.16Q18.47 -0.5 16.45 -0.5Q14.15 -0.5 12.27 0.39Q12.05 0.49 11.83 0.61Q10.68 1.23 9.81 2.12Q9.13 2.81 8.61 3.68Q8.31 4.2 8.09 4.74Q7.45 6.29 7.45 8.09Q7.45 9.95 8.12 11.53Q8.33 12.03 8.61 12.5Q9.11 13.33 9.76 14.01Q10.65 14.93 11.82 15.58Q12.11 15.73 12.41 15.87Q14.22 16.69 16.4 16.69Q17.92 16.69 19.33 16.3Q19.6 16.22 19.86 16.14Q21.52 15.58 22.76 14.55L22.76 8ZM5.78 -0.3L3.38 -0.3L3.38 16.5L5.78 16.5L5.78 -0.3ZM39.8 16.5L39.8 -0.3L37.39 -0.3L37.39 12.22L27.32 -0.3L25.35 -0.3L25.35 16.5L27.75 16.5L27.75 3.97L37.83 16.5L39.8 16.5ZM42.76 16.5L44.61 12.29L53.54 12.29L55.39 16.5L57.9 16.5L50.28 -0.3L47.9 -0.3L40.29 16.5L42.76 16.5ZM55.14 1.78L60.9 1.78L60.9 16.5L63.28 16.5L63.28 1.78L69.04 1.78L69.04 -0.3L55.14 -0.3L55.14 1.78ZM49.07 2.15L52.7 10.38L45.45 10.38L49.07 2.15Z" fill="#343434" fill-opacity="1.000000" fill-rule="evenodd"/>
	</g>
	<path d="M3.38 -0.3L5.78 -0.3L5.78 16.5L3.38 16.5L3.38 -0.3ZM20.46 8L22.76 8L22.76 14.55Q21.52 15.58 19.86 16.14Q18.21 16.69 16.4 16.69Q13.86 16.69 11.82 15.58Q9.78 14.46 8.61 12.5Q7.45 10.54 7.45 8.09Q7.45 5.65 8.61 3.68Q9.78 1.71 11.83 0.61Q13.88 -0.5 16.45 -0.5Q18.47 -0.5 20.11 0.16Q21.76 0.82 22.9 2.09L21.42 3.58Q19.4 1.64 16.55 1.64Q14.63 1.64 13.1 2.47Q11.58 3.29 10.71 4.77Q9.85 6.25 9.85 8.09Q9.85 9.92 10.71 11.4Q11.58 12.87 13.1 13.71Q14.63 14.55 16.52 14.55Q18.78 14.55 20.46 13.47L20.46 8ZM39.8 -0.3L39.8 16.5L37.83 16.5L27.75 3.97L27.75 16.5L25.35 16.5L25.35 -0.3L27.32 -0.3L37.39 12.22L37.39 -0.3L39.8 -0.3ZM53.54 12.29L44.61 12.29L42.76 16.5L40.29 16.5L47.9 -0.3L50.28 -0.3L57.9 16.5L55.39 16.5L53.54 12.29ZM52.7 10.38L49.07 2.15L45.45 10.38L52.7 10.38ZM60.9 1.78L55.14 1.78L55.14 -0.3L69.04 -0.3L69.04 1.78L63.28 1.78L63.28 16.5L60.9 16.5L60.9 1.78Z" stroke="#000000" stroke-opacity="1.000000" stroke-width="1.000000"/>
</svg>
