<svg width="8.000000" height="8.000000" viewBox="0 0 8 8" fill="none" xmlns="http://www.w3.org/2000/svg" xmlns:xlink="http://www.w3.org/1999/xlink">
	<desc>
			Created with Pixso.
	</desc>
	<defs/>
	<path id="Icon" d="M3.77734 6.99133L2.0459 7.9425C1.8125 8.07092 1.52295 7.97699 1.3999 7.7326C1.35107 7.63531 1.33447 7.52386 1.35205 7.41547L1.68262 5.40094C1.70947 5.23877 1.65771 5.0733 1.54492 4.95844L0.144531 3.53174C-0.0449219 3.33905 -0.0488281 3.02252 0.135742 2.82483C0.209473 2.74609 0.305664 2.69489 0.409668 2.67908L2.34521 2.38513C2.50098 2.36151 2.63574 2.25922 2.70557 2.11169L3.5708 0.278748C3.68799 0.031189 3.97461 -0.0704346 4.21191 0.0517578C4.30615 0.100403 4.38232 0.180176 4.42871 0.278748L5.29443 2.11169C5.36426 2.25922 5.49902 2.36151 5.65479 2.38513L7.59033 2.67908C7.85156 2.71875 8.03271 2.97241 7.99512 3.24567C7.97998 3.35443 7.93066 3.45502 7.85547 3.53174L6.45508 4.95844C6.34229 5.0733 6.29053 5.23877 6.31738 5.40094L6.64795 7.41547C6.69238 7.68762 6.51758 7.94604 6.25732 7.99268C6.15381 8.01129 6.04688 7.99365 5.95361 7.9425L4.22266 6.99133C4.08301 6.91479 3.9165 6.91479 3.77734 6.99133ZM4.60791 6.29016C4.22852 6.08179 3.77148 6.08179 3.39209 6.29016L2.24365 6.92102L2.47217 5.53052C2.53955 5.11816 2.40869 4.69598 2.11572 4.39801L1.11719 3.38074L2.46533 3.17609C2.88721 3.112 3.24658 2.83923 3.42871 2.45331L4 1.24377L4.57129 2.45331C4.75342 2.83923 5.11279 3.112 5.53467 3.17609L6.88281 3.38074L5.88379 4.39801C5.59131 4.69598 5.45996 5.11816 5.52783 5.53052L5.75586 6.92102L4.60791 6.29016Z" clip-rule="evenodd" fill="#000000" fill-opacity="1.000000" fill-rule="evenodd"/>
</svg>
