<svg width="8.000000" height="8.000000" viewBox="0 0 8 8" fill="none" xmlns="http://www.w3.org/2000/svg" xmlns:xlink="http://www.w3.org/1999/xlink">
	<desc>
			Created with Pixso.
	</desc>
	<defs/>
	<path id="Icon" d="M3.77 6.99L2.04 7.94C1.81 8.07 1.52 7.97 1.39 7.73C1.35 7.63 1.33 7.52 1.35 7.41L1.68 5.4C1.7 5.23 1.65 5.07 1.54 4.95L0.14 3.53C-0.05 3.33 -0.05 3.02 0.13 2.82C0.2 2.74 0.3 2.69 0.4 2.67L2.34 2.38C2.5 2.36 2.63 2.25 2.7 2.11L3.57 0.27C3.68 0.03 3.97 -0.08 4.21 0.05C4.3 0.1 4.38 0.18 4.42 0.27L5.29 2.11C5.36 2.25 5.49 2.36 5.65 2.38L7.59 2.67C7.85 2.71 8.03 2.97 7.99 3.24C7.97 3.35 7.93 3.45 7.85 3.53L6.45 4.95C6.34 5.07 6.29 5.23 6.31 5.4L6.64 7.41C6.69 7.68 6.51 7.94 6.25 7.99C6.15 8.01 6.04 7.99 5.95 7.94L4.22 6.99C4.08 6.91 3.91 6.91 3.77 6.99Z" fill="#000000" fill-opacity="1.000000" fill-rule="evenodd"/>
</svg>
